<svg width="116" height="30" viewBox="0 0 116 30" fill="none" xmlns="http://www.w3.org/2000/svg">
<path d="M18.3634 13.9062C18.3327 10.6026 21.1588 8.9954 21.288 8.92057C19.6875 6.6625 17.2067 6.35397 16.3349 6.32937C14.2514 6.1172 12.2303 7.5358 11.1689 7.5358C10.0864 7.5358 8.45193 6.34987 6.69038 6.38472C4.42357 6.41855 2.30293 7.68852 1.13986 9.66062C-1.26042 13.6817 0.529731 19.5908 2.82938 22.8411C3.97974 24.4329 5.32394 26.2103 7.08337 26.1477C8.80466 26.0791 9.44764 25.0858 11.5248 25.0858C13.583 25.0858 14.1868 26.1477 15.9811 26.1078C17.8285 26.0791 18.9916 24.5088 20.1017 22.9026C21.431 21.0781 21.9649 19.2813 21.9861 19.189C21.9427 19.1747 18.3984 17.8657 18.3634 13.9062Z" fill="#353535"/>
<path d="M14.9738 4.19122C15.8996 3.0709 16.533 1.54672 16.3572 0C15.0172 0.0574 13.3415 0.896875 12.3765 1.9926C11.5227 2.95815 10.7601 4.54075 10.9571 6.02905C12.4623 6.1377 14.0077 5.29412 14.9738 4.19122Z" fill="#353535"/>
<path d="M38.4068 3.88661C38.4068 5.09303 38.0328 6.00118 37.2861 6.61106C36.5944 7.17378 35.6114 7.45566 34.3381 7.45566C33.7068 7.45566 33.1666 7.42901 32.7143 7.37571V0.783931C33.3043 0.691681 33.9399 0.644531 34.6263 0.644531C35.8391 0.644531 36.7533 0.899756 37.3697 1.41021C38.0604 1.98728 38.4068 2.81241 38.4068 3.88661ZM37.2363 3.91633C37.2363 3.13426 37.0223 2.53463 36.5944 2.11643C36.1664 1.69926 35.5415 1.49016 34.7184 1.49016C34.3689 1.49016 34.0712 1.51271 33.8244 1.55986V6.57108C33.961 6.59158 34.211 6.60081 34.5744 6.60081C35.4239 6.60081 36.0796 6.37223 36.5414 5.91508C37.0032 5.45793 37.2363 4.79168 37.2363 3.91633Z" fill="#353535"/>
<path d="M44.613 4.94115C44.613 5.68427 44.3937 6.29312 43.9552 6.77077C43.4954 7.26175 42.8864 7.50672 42.1258 7.50672C41.3928 7.50672 40.8092 7.272 40.3738 6.8005C39.9395 6.33002 39.7224 5.73655 39.7224 5.0211C39.7224 4.27285 39.9459 3.65887 40.395 3.18225C40.8441 2.70562 41.4479 2.4668 42.2084 2.4668C42.9414 2.4668 43.5304 2.70152 43.9763 3.172C44.4 3.62915 44.613 4.21955 44.613 4.94115ZM43.4615 4.976C43.4615 4.53012 43.362 4.1478 43.1639 3.82902C42.9309 3.44362 42.5993 3.25092 42.1682 3.25092C41.7222 3.25092 41.3833 3.44362 41.1502 3.82902C40.9511 4.1478 40.8526 4.53627 40.8526 4.99547C40.8526 5.44135 40.9522 5.82367 41.1502 6.14245C41.3907 6.52785 41.7254 6.72055 42.1576 6.72055C42.5813 6.72055 42.9139 6.52477 43.1533 6.1322C43.3588 5.80727 43.4615 5.42187 43.4615 4.976Z" fill="#353535"/>
<path d="M52.9345 2.56445L51.3721 7.3963H50.3552L49.708 5.29813C49.5438 4.77435 49.4103 4.25365 49.3065 3.73705H49.2864C49.19 4.268 49.0566 4.78768 48.885 5.29813L48.1975 7.3963H47.169L45.6998 2.56445H46.8406L47.4052 4.86148C47.5418 5.40473 47.6541 5.92235 47.7441 6.4123H47.7643C47.8469 6.00845 47.9835 5.4939 48.1763 4.87173L48.885 2.56548H49.7896L50.4685 4.82253C50.6327 5.37295 50.7662 5.90288 50.8689 6.41333H50.8997C50.9749 5.9162 51.0882 5.38628 51.2386 4.82253L51.8445 2.56548H52.9345V2.56445Z" fill="#353535"/>
<path d="M58.6895 7.39622H57.5794V4.62872C57.5794 3.77592 57.2446 3.34952 56.5731 3.34952C56.2436 3.34952 55.9778 3.46637 55.7712 3.70109C55.5668 3.93582 55.463 4.21257 55.463 4.52929V7.39519H54.3529V3.94504C54.3529 3.52069 54.3391 3.06047 54.3126 2.56232H55.2882L55.3401 3.31774H55.3708C55.5 3.08302 55.6928 2.88929 55.946 2.73452C56.2468 2.55412 56.5837 2.46289 56.9523 2.46289C57.4184 2.46289 57.806 2.60844 58.1143 2.90057C58.4977 3.25829 58.6895 3.79232 58.6895 4.50162V7.39622V7.39622Z" fill="#353535"/>
<path d="M61.7507 7.39658H60.6417V0.347656H61.7507V7.39658Z" fill="#353535"/>
<path d="M68.2864 4.94115C68.2864 5.68427 68.0671 6.29312 67.6286 6.77077C67.1688 7.26175 66.5587 7.50672 65.7992 7.50672C65.0651 7.50672 64.4815 7.272 64.0472 6.8005C63.6129 6.33002 63.3958 5.73655 63.3958 5.0211C63.3958 4.27285 63.6193 3.65887 64.0684 3.18225C64.5175 2.70562 65.1213 2.4668 65.8808 2.4668C66.6148 2.4668 67.2027 2.70152 67.6497 3.172C68.0734 3.62915 68.2864 4.21955 68.2864 4.94115ZM67.1339 4.976C67.1339 4.53012 67.0343 4.1478 66.8362 3.82902C66.6042 3.44362 66.2716 3.25092 65.8416 3.25092C65.3946 3.25092 65.0556 3.44362 64.8236 3.82902C64.6245 4.1478 64.526 4.53627 64.526 4.99547C64.526 5.44135 64.6256 5.82367 64.8236 6.14245C65.0641 6.52785 65.3988 6.72055 65.831 6.72055C66.2547 6.72055 66.5862 6.52477 66.8256 6.1322C67.0322 5.80727 67.1339 5.42187 67.1339 4.976Z" fill="#353535"/>
<path d="M73.6589 7.39705H72.6621L72.5795 6.84047H72.5488C72.2077 7.2843 71.7215 7.50672 71.0902 7.50672C70.6188 7.50672 70.2375 7.36015 69.9504 7.06905C69.6899 6.8046 69.5596 6.47557 69.5596 6.08505C69.5596 5.49465 69.8138 5.04467 70.3254 4.73307C70.836 4.42147 71.5542 4.26875 72.4789 4.27592V4.18572C72.4789 3.5492 72.1336 3.23145 71.4419 3.23145C70.9493 3.23145 70.515 3.35137 70.14 3.58917L69.9144 2.88397C70.3784 2.6062 70.9514 2.4668 71.6272 2.4668C72.9323 2.4668 73.5869 3.13305 73.5869 4.46555V6.24495C73.5869 6.72772 73.6112 7.1121 73.6589 7.39705ZM72.5064 5.73655V4.99137C71.2819 4.97087 70.6697 5.2958 70.6697 5.96512C70.6697 6.21727 70.7396 6.40587 70.8826 6.53195C71.0256 6.65802 71.2078 6.72055 71.4249 6.72055C71.6686 6.72055 71.8963 6.64572 72.1039 6.4971C72.3126 6.34745 72.4408 6.15782 72.4884 5.92515C72.5001 5.87287 72.5064 5.80932 72.5064 5.73655Z" fill="#353535"/>
<path d="M79.9668 7.39658H78.9817L78.9298 6.62066H78.8991C78.5845 7.21106 78.0485 7.50626 77.2953 7.50626C76.6937 7.50626 76.1927 7.27768 75.7954 6.82053C75.3982 6.36338 75.2001 5.76991 75.2001 5.04113C75.2001 4.25906 75.4152 3.62561 75.8473 3.14181C76.2657 2.69081 76.7784 2.46531 77.3886 2.46531C78.0591 2.46531 78.5283 2.68363 78.7953 3.12131H78.8164V0.347656H79.9276V6.09483C79.9276 6.56531 79.9403 6.99888 79.9668 7.39658ZM78.8164 5.35888V4.55323C78.8164 4.41383 78.8058 4.30108 78.7857 4.21498C78.7232 3.95668 78.5887 3.73938 78.3843 3.56411C78.1777 3.38883 77.9288 3.30068 77.6417 3.30068C77.2275 3.30068 76.9034 3.45956 76.6651 3.77833C76.4289 4.09711 76.3092 4.50403 76.3092 5.00116C76.3092 5.47881 76.4225 5.86626 76.6503 6.16453C76.8907 6.48228 77.2148 6.64116 77.6205 6.64116C77.9849 6.64116 78.2762 6.50893 78.4976 6.24346C78.7116 5.99848 78.8164 5.70328 78.8164 5.35888Z" fill="#353535"/>
<path d="M89.4609 4.94115C89.4609 5.68427 89.2416 6.29312 88.8031 6.77077C88.3434 7.26175 87.7354 7.50672 86.9738 7.50672C86.2418 7.50672 85.6582 7.272 85.2218 6.8005C84.7875 6.33002 84.5703 5.73655 84.5703 5.0211C84.5703 4.27285 84.7938 3.65887 85.2429 3.18225C85.6921 2.70562 86.2958 2.4668 87.0574 2.4668C87.7894 2.4668 88.3794 2.70152 88.8243 3.172C89.248 3.62915 89.4609 4.21955 89.4609 4.94115ZM88.3106 4.976C88.3106 4.53012 88.211 4.1478 88.0129 3.82902C87.7788 3.44362 87.4483 3.25092 87.0161 3.25092C86.5713 3.25092 86.2323 3.44362 85.9982 3.82902C85.7991 4.1478 85.7005 4.53627 85.7005 4.99547C85.7005 5.44135 85.8001 5.82367 85.9982 6.14245C86.2386 6.52785 86.5734 6.72055 87.0056 6.72055C87.4293 6.72055 87.7629 6.52477 88.0023 6.1322C88.2068 5.80727 88.3106 5.42187 88.3106 4.976Z" fill="#353535"/>
<path d="M95.4299 7.39622H94.3208V4.62872C94.3208 3.77592 93.9861 3.34952 93.3135 3.34952C92.984 3.34952 92.7182 3.46637 92.5127 3.70109C92.3072 3.93582 92.2044 4.21257 92.2044 4.52929V7.39519H91.0933V3.94504C91.0933 3.52069 91.0806 3.06047 91.0541 2.56232H92.0286L92.0805 3.31774H92.1112C92.2415 3.08302 92.4343 2.88929 92.6864 2.73452C92.9883 2.55412 93.3241 2.46289 93.6938 2.46289C94.1588 2.46289 94.5464 2.60844 94.8547 2.90057C95.2392 3.25829 95.4299 3.79232 95.4299 4.50162V7.39622V7.39622Z" fill="#353535"/>
<path d="M102.901 3.3693H101.678V5.71655C101.678 6.3131 101.896 6.61138 102.326 6.61138C102.525 6.61138 102.69 6.59498 102.82 6.56115L102.849 7.37603C102.63 7.45598 102.342 7.49595 101.987 7.49595C101.548 7.49595 101.207 7.3668 100.96 7.1085C100.712 6.8502 100.59 6.4156 100.59 5.80573V3.3693H99.8597V2.56468H100.59V1.67908L101.677 1.36133V2.56365H102.9V3.3693H102.901Z" fill="#353535"/>
<path d="M108.778 7.39658H107.666V4.64958C107.666 3.78346 107.332 3.34988 106.661 3.34988C106.146 3.34988 105.795 3.60101 105.602 4.10326C105.569 4.20883 105.55 4.33798 105.55 4.48968V7.39556H104.441V0.347656H105.55V3.25968H105.571C105.921 2.72976 106.422 2.46531 107.071 2.46531C107.531 2.46531 107.911 2.61086 108.213 2.90298C108.589 3.26686 108.778 3.80806 108.778 4.52351V7.39658V7.39658Z" fill="#353535"/>
<path d="M114.84 4.75201C114.84 4.94471 114.825 5.10666 114.798 5.23888H111.469C111.484 5.71653 111.643 6.08041 111.951 6.33256C112.233 6.55806 112.596 6.67081 113.041 6.67081C113.534 6.67081 113.983 6.59496 114.387 6.44223L114.561 7.18843C114.088 7.38728 113.53 7.48671 112.885 7.48671C112.112 7.48671 111.503 7.26633 111.062 6.82558C110.62 6.38483 110.4 5.79341 110.4 5.05131C110.4 4.32253 110.605 3.71573 111.017 3.23193C111.447 2.71533 112.028 2.45703 112.763 2.45703C113.481 2.45703 114.026 2.71533 114.395 3.23193C114.693 3.64193 114.84 4.14931 114.84 4.75201ZM113.78 4.47423C113.789 4.15546 113.716 3.88076 113.565 3.64911C113.373 3.35083 113.079 3.20118 112.682 3.20118C112.32 3.20118 112.024 3.34673 111.799 3.63886C111.614 3.87153 111.505 4.14931 111.469 4.47423H113.78Z" fill="#353535"/>
<path d="M43.274 25.92H40.8684L39.5507 21.9133H34.9705L33.7152 25.92H31.3732L35.9111 12.2793H38.7139L43.274 25.92ZM39.1535 20.2323L37.9618 16.6704C37.8358 16.3065 37.5996 15.4496 37.2511 14.1007H37.2087C37.0699 14.6809 36.8464 15.5378 36.5392 16.6704L35.3688 20.2323H39.1535V20.2323Z" fill="#353535"/>
<path d="M54.9439 20.8808C54.9439 22.5536 54.4768 23.8758 53.5425 24.8465C52.7057 25.7106 51.6665 26.1421 50.4261 26.1421C49.0872 26.1421 48.1254 25.6767 47.5397 24.746H47.4973V29.9274H45.239V19.3217C45.239 18.2701 45.2104 17.1908 45.1553 16.0838H47.1414L47.2674 17.6428H47.3098C48.0629 16.4681 49.2059 15.8818 50.7397 15.8818C51.9388 15.8818 52.9398 16.34 53.7406 17.2574C54.5435 18.1758 54.9439 19.3832 54.9439 20.8808ZM52.6432 20.9607C52.6432 20.0034 52.4207 19.2141 51.9737 18.593C51.4854 17.9452 50.8297 17.6213 50.0077 17.6213C49.4506 17.6213 48.9442 17.8017 48.4919 18.1573C48.0386 18.5161 47.742 18.9845 47.6032 19.5647C47.5333 19.8353 47.4984 20.0567 47.4984 20.2309V21.8709C47.4984 22.5864 47.725 23.1901 48.1784 23.6831C48.6318 24.1761 49.2207 24.4221 49.9452 24.4221C50.7958 24.4221 51.4579 24.1044 51.9314 23.4709C52.4059 22.8365 52.6432 22.0001 52.6432 20.9607Z" fill="#353535"/>
<path d="M66.6349 20.8808C66.6349 22.5536 66.1678 23.8758 65.2324 24.8465C64.3967 25.7106 63.3576 26.1421 62.1172 26.1421C60.7783 26.1421 59.8165 25.6767 59.2317 24.746H59.1894V29.9274H56.931V19.3217C56.931 18.2701 56.9024 17.1908 56.8474 16.0838H58.8335L58.9595 17.6428H59.0019C59.754 16.4681 60.8969 15.8818 62.4318 15.8818C63.6298 15.8818 64.6308 16.34 65.4337 17.2574C66.2335 18.1758 66.6349 19.3832 66.6349 20.8808ZM64.3342 20.9607C64.3342 20.0034 64.1107 19.2141 63.6637 18.593C63.1754 17.9452 62.5218 17.6213 61.6988 17.6213C61.1405 17.6213 60.6353 17.8017 60.1819 18.1573C59.7285 18.5161 59.433 18.9845 59.2942 19.5647C59.2254 19.8353 59.1894 20.0567 59.1894 20.2309V21.8709C59.1894 22.5864 59.4161 23.1901 59.8673 23.6831C60.3207 24.1751 60.9096 24.4221 61.6363 24.4221C62.4869 24.4221 63.1489 24.1044 63.6224 23.4709C64.0969 22.8365 64.3342 22.0001 64.3342 20.9607Z" fill="#353535"/>
<path d="M79.7062 22.0944C79.7062 23.2547 79.2899 24.1987 78.4541 24.9275C77.5358 25.7239 76.2572 26.1216 74.6143 26.1216C73.0975 26.1216 71.8814 25.8387 70.9609 25.2719L71.4842 23.4505C72.4757 24.0306 73.5635 24.3217 74.7489 24.3217C75.5994 24.3217 76.2615 24.1352 76.7371 23.7641C77.2106 23.3931 77.4468 22.8949 77.4468 22.2738C77.4468 21.7203 77.2519 21.2539 76.861 20.8757C76.4723 20.4974 75.8229 20.1459 74.9162 19.8209C72.4481 18.9302 71.2152 17.6254 71.2152 15.9095C71.2152 14.7882 71.6473 13.8688 72.5128 13.1533C73.375 12.4368 74.5253 12.0791 75.9638 12.0791C77.2466 12.0791 78.3122 12.2954 79.1628 12.7269L78.5982 14.5084C77.8038 14.0902 76.9055 13.8811 75.9003 13.8811C75.1058 13.8811 74.4851 14.0707 74.0402 14.4479C73.6642 14.7851 73.4756 15.1961 73.4756 15.683C73.4756 16.2222 73.6906 16.668 74.1228 17.0186C74.4989 17.3425 75.1821 17.693 76.1736 18.0713C77.3864 18.5438 78.2772 19.0963 78.8503 19.7297C79.4212 20.3611 79.7062 21.1514 79.7062 22.0944Z" fill="#353535"/>
<path d="M87.1729 17.7236H84.6837V22.4991C84.6837 23.7137 85.1222 24.3205 86.0014 24.3205C86.405 24.3205 86.7397 24.2867 87.0045 24.219L87.067 25.8785C86.6221 26.0394 86.0363 26.1204 85.3107 26.1204C84.4188 26.1204 83.7218 25.857 83.2187 25.3311C82.7177 24.8043 82.4656 23.9207 82.4656 22.6795V17.7215H80.9826V16.0815H82.4656V14.2806L84.6837 13.6328V16.0815H87.1729V17.7236Z" fill="#353535"/>
<path d="M98.4042 20.9207C98.4042 22.4326 97.9572 23.6738 97.0653 24.6445C96.13 25.6439 94.8885 26.142 93.341 26.142C91.8495 26.142 90.6621 25.6634 89.7766 24.706C88.891 23.7487 88.4482 22.5402 88.4482 21.0837C88.4482 19.5595 88.9037 18.311 89.8179 17.3404C90.7299 16.3687 91.9607 15.8828 93.5083 15.8828C94.9998 15.8828 96.1999 16.3615 97.1056 17.3199C97.972 18.2495 98.4042 19.4498 98.4042 20.9207ZM96.0611 20.9914C96.0611 20.0843 95.8609 19.3063 95.4552 18.6575C94.9817 17.8723 94.3049 17.4808 93.4278 17.4808C92.52 17.4808 91.8305 17.8734 91.357 18.6575C90.9513 19.3073 90.7511 20.0976 90.7511 21.0324C90.7511 21.9395 90.9513 22.7175 91.357 23.3653C91.8453 24.1505 92.5274 24.542 93.4077 24.542C94.2699 24.542 94.9468 24.1423 95.4351 23.3448C95.8514 22.6837 96.0611 21.8975 96.0611 20.9914Z" fill="#353535"/>
<path d="M105.745 18.0056C105.521 17.9657 105.283 17.9452 105.033 17.9452C104.239 17.9452 103.624 18.2352 103.192 18.8164C102.816 19.3289 102.627 19.9767 102.627 20.7588V25.9197H100.37L100.391 19.1813C100.391 18.0477 100.363 17.0155 100.307 16.0848H102.274L102.356 17.9667H102.419C102.657 17.3199 103.033 16.7992 103.548 16.4087C104.051 16.0571 104.595 15.8818 105.18 15.8818C105.389 15.8818 105.578 15.8962 105.745 15.9218V18.0056Z" fill="#353535"/>
<path d="M115.845 20.5363C115.845 20.9278 115.818 21.2579 115.762 21.5274H108.987C109.014 22.4991 109.341 23.2423 109.97 23.7548C110.541 24.2129 111.28 24.4425 112.186 24.4425C113.189 24.4425 114.105 24.2878 114.928 23.9772L115.281 25.4942C114.32 25.9001 113.184 26.102 111.874 26.102C110.298 26.102 109.06 25.6531 108.16 24.7562C107.262 23.8593 106.812 22.6549 106.812 21.1441C106.812 19.6609 107.23 18.4258 108.068 17.4408C108.945 16.3891 110.13 15.8633 111.622 15.8633C113.087 15.8633 114.196 16.3891 114.949 17.4408C115.545 18.2761 115.845 19.3093 115.845 20.5363ZM113.691 19.9694C113.706 19.3216 113.559 18.762 113.253 18.2895C112.862 17.6816 112.261 17.3782 111.453 17.3782C110.715 17.3782 110.114 17.6745 109.656 18.269C109.28 18.7415 109.056 19.3083 108.987 19.9684H113.691V19.9694Z" fill="#353535"/>
</svg>
