<svg width="122" height="122" viewBox="0 0 122 122" fill="none" xmlns="http://www.w3.org/2000/svg">
<circle cx="61" cy="61" r="61" fill="url(#paint0_linear_807_709)"/>
<path d="M33.7047 41.0308C33.7047 35.3111 39.5272 31.4348 44.8041 33.6415L61.1983 40.4972L77.5925 33.6415C82.8694 31.4348 88.6919 35.3111 88.6919 41.0308V56.6476C88.6919 71.8319 76.3826 84.2953 61.1983 84.2953C46.014 84.2953 33.7047 71.8319 33.7047 56.6476V41.0308Z" fill="white"/>
<path fill-rule="evenodd" clip-rule="evenodd" d="M61.1983 93.2287C46.014 93.2287 33.7047 80.9194 33.7047 65.7351V56.6476C33.7047 51.2642 39.2034 40.4972 61.1983 40.4972C83.1932 40.4972 88.6919 51.2642 88.6919 56.6476V65.7351C88.6919 80.9194 76.3826 93.2287 61.1983 93.2287Z" fill="white"/>
<path d="M60.6338 48.7043L61.1984 48.9404L61.763 48.7043L74.2998 43.4609C77.3707 42.1766 80.7597 44.4326 80.7597 47.7624V59.7064V66.6566C80.7597 77.4618 72.0016 86.2208 61.1984 86.2208C50.3952 86.2208 41.6372 77.4618 41.6372 66.6566V59.7064V47.7624C41.6372 44.4326 45.0262 42.1766 48.0971 43.4609L60.6338 48.7043Z" stroke="url(#paint1_linear_807_709)" stroke-width="2.92649"/>
<defs>
<linearGradient id="paint0_linear_807_709" x1="17.6205" y1="7.90156" x2="106.75" y2="118.207" gradientUnits="userSpaceOnUse">
<stop stop-color="#2268EF"/>
<stop offset="1" stop-color="#699CFF"/>
</linearGradient>
<linearGradient id="paint1_linear_807_709" x1="36.5543" y1="39.474" x2="82.2229" y2="92.8439" gradientUnits="userSpaceOnUse">
<stop stop-color="#6397FE"/>
<stop offset="1" stop-color="#276CF0"/>
</linearGradient>
</defs>
</svg>
