<svg width="124" height="29" viewBox="0 0 124 29" fill="none" xmlns="http://www.w3.org/2000/svg">
<path d="M0.49123 1.7268C0.180073 2.04199 0 2.53271 0 3.16821V25.8361C0 26.4716 0.180073 26.9623 0.49123 27.2775L0.568027 27.3467L13.6949 14.6495V14.3497L0.568027 1.65249L0.49123 1.7268Z" fill="#353535"/>
<path d="M19.6545 18.8848L15.2838 14.6502V14.3504L19.6598 10.1159L19.7578 10.171L24.9402 13.0243C26.4192 13.8341 26.4192 15.1666 24.9402 15.9815L19.7578 18.8297L19.6545 18.8848V18.8848Z" fill="#353535"/>
<path d="M18.9634 19.6179L14.4893 15.2885L1.28564 28.0664C1.77688 28.5661 2.57794 28.6263 3.4889 28.1266L18.9634 19.6179" fill="#353535"/>
<path d="M18.9634 9.38257L3.4889 0.873791C2.57794 0.379229 1.77688 0.439446 1.28564 0.939133L14.4893 13.7119L18.9634 9.38257Z" fill="#353535"/>
<path d="M40.4597 4.49935C40.4597 5.35523 40.1949 6.0407 39.6732 6.55191C39.0734 7.15794 38.2922 7.46288 37.3349 7.46288C36.42 7.46288 35.6388 7.15282 34.9979 6.54166C34.3558 5.92154 34.0353 5.16048 34.0353 4.24951C34.0353 3.33854 34.3558 2.57748 34.9979 1.96248C35.6388 1.3462 36.42 1.03613 37.3349 1.03613C37.7904 1.03613 38.2247 1.1271 38.6391 1.29623C39.0523 1.46663 39.3886 1.69726 39.6322 1.98169L39.0787 2.52238C38.6537 2.03679 38.0751 1.7972 37.3349 1.7972C36.6676 1.7972 36.089 2.02269 35.5977 2.47754C35.1118 2.93366 34.8682 3.52432 34.8682 4.24951C34.8682 4.97469 35.1118 5.57047 35.5977 6.0266C36.089 6.47632 36.6676 6.70694 37.3349 6.70694C38.0433 6.70694 38.6391 6.47632 39.1092 6.02147C39.419 5.72038 39.5951 5.30526 39.6415 4.77482H37.3349V4.03426H40.4121C40.4492 4.19441 40.4597 4.34944 40.4597 4.49935V4.49935Z" fill="#353535" stroke="#353535" stroke-width="0.16" stroke-miterlimit="10"/>
<path d="M45.3416 1.93141H42.4512V3.87891H45.0569V4.61947H42.4512V6.56697H45.3416V7.32163H41.6329V1.17676H45.3416V1.93141Z" fill="#353535" stroke="#353535" stroke-width="0.16" stroke-miterlimit="10"/>
<path d="M48.7868 7.32163H47.9686V1.93141H46.1956V1.17676H50.5611V1.93141H48.7868V7.32163V7.32163Z" fill="#353535" stroke="#353535" stroke-width="0.16" stroke-miterlimit="10"/>
<path d="M53.7203 7.32163V1.17676H54.5373V7.32163H53.7203Z" fill="#353535" stroke="#353535" stroke-width="0.16" stroke-miterlimit="10"/>
<path d="M58.1586 7.32163H57.3469V1.93141H55.5674V1.17676H59.9381V1.93141H58.1586V7.32163Z" fill="#353535" stroke="#353535" stroke-width="0.16" stroke-miterlimit="10"/>
<path d="M68.2031 6.53141C67.5768 7.15282 66.8009 7.46288 65.8753 7.46288C64.9445 7.46288 64.1686 7.15282 63.5423 6.53141C62.9174 5.91129 62.6062 5.15023 62.6062 4.24951C62.6062 3.34879 62.9174 2.58773 63.5423 1.9676C64.1686 1.3462 64.9445 1.03613 65.8753 1.03613C66.7956 1.03613 67.5715 1.3462 68.1978 1.97273C68.828 2.59798 69.1392 3.35391 69.1392 4.24951C69.1392 5.15023 68.828 5.91129 68.2031 6.53141ZM64.1474 6.01635C64.6188 6.47632 65.1921 6.70694 65.8753 6.70694C66.5533 6.70694 67.1319 6.47632 67.598 6.01635C68.068 5.55638 68.3063 4.96573 68.3063 4.24951C68.3063 3.53329 68.068 2.94263 67.598 2.48266C67.1319 2.0227 66.5533 1.79207 65.8753 1.79207C65.1921 1.79207 64.6188 2.0227 64.1474 2.48266C63.6774 2.94263 63.439 3.53329 63.439 4.24951C63.439 4.96573 63.6774 5.55638 64.1474 6.01635V6.01635Z" fill="#353535" stroke="#353535" stroke-width="0.16" stroke-miterlimit="10"/>
<path d="M70.2871 7.32163V1.17676H71.2802L74.3679 5.95582H74.4037L74.3679 4.77451V1.17676H75.1849V7.32163H74.3322L71.0988 2.30682H71.063L71.0988 3.49326V7.32163H70.2871V7.32163Z" fill="#353535" stroke="#353535" stroke-width="0.16" stroke-miterlimit="10"/>
<path d="M62.4049 16.2966C59.917 16.2966 57.8845 18.1288 57.8845 20.6567C57.8845 23.1641 59.917 25.0155 62.4049 25.0155C64.8981 25.0155 66.9306 23.1641 66.9306 20.6567C66.9306 18.1288 64.8981 16.2966 62.4049 16.2966ZM62.4049 23.2986C61.0398 23.2986 59.8653 22.2083 59.8653 20.6567C59.8653 19.0846 61.0398 18.0134 62.4049 18.0134C63.77 18.0134 64.9498 19.0846 64.9498 20.6567C64.9498 22.2083 63.77 23.2986 62.4049 23.2986V23.2986ZM52.5419 16.2966C50.0486 16.2966 48.0215 18.1288 48.0215 20.6567C48.0215 23.1641 50.0486 25.0155 52.5419 25.0155C55.0338 25.0155 57.0623 23.1641 57.0623 20.6567C57.0623 18.1288 55.0338 16.2966 52.5419 16.2966ZM52.5419 23.2986C51.1754 23.2986 49.997 22.2083 49.997 20.6567C49.997 19.0846 51.1754 18.0134 52.5419 18.0134C53.907 18.0134 55.0815 19.0846 55.0815 20.6567C55.0815 22.2083 53.907 23.2986 52.5419 23.2986ZM40.8053 17.6329V19.4856H45.3773C45.2436 20.5208 44.8861 21.2819 44.3379 21.8123C43.6706 22.453 42.6312 23.1641 40.8053 23.1641C37.9916 23.1641 35.7884 20.9667 35.7884 18.2441C35.7884 15.5214 37.9916 13.3241 40.8053 13.3241C42.3267 13.3241 43.4336 13.8993 44.2505 14.645L45.5998 13.3394C44.4571 12.2837 42.937 11.4727 40.8053 11.4727C36.9469 11.4727 33.7043 14.5105 33.7043 18.2441C33.7043 21.9776 36.9469 25.0155 40.8053 25.0155C42.8907 25.0155 44.4571 24.3543 45.6885 23.1141C46.9503 21.8931 47.3436 20.1762 47.3436 18.7899C47.3436 18.3594 47.3065 17.9635 47.2403 17.6329H40.8053ZM88.7977 19.0692C88.4256 18.0942 87.2776 16.2966 84.9393 16.2966C82.6222 16.2966 80.693 18.0634 80.693 20.6567C80.693 23.0987 82.6023 25.0155 85.1618 25.0155C87.2313 25.0155 88.4256 23.7944 88.9168 23.0833L87.3809 22.0929C86.8685 22.8181 86.1707 23.2986 85.1618 23.2986C84.1594 23.2986 83.4405 22.854 82.9797 21.9776L89.0055 19.565L88.7977 19.0692V19.0692ZM82.654 20.5208C82.6023 18.8398 84.0032 17.9788 85.0068 17.9788C85.7933 17.9788 86.4607 18.3594 86.6831 18.9039L82.654 20.5208V20.5208ZM77.7562 24.7503H79.737V11.9378H77.7562V24.7503ZM74.5122 17.2678H74.446C74.0011 16.7578 73.1524 16.2966 72.0773 16.2966C69.821 16.2966 67.7581 18.2133 67.7581 20.6708C67.7581 23.1141 69.821 25.0155 72.0773 25.0155C73.1524 25.0155 74.0011 24.5504 74.446 24.0251H74.5122V24.6503C74.5122 26.3172 73.592 27.2128 72.1077 27.2128C70.8975 27.2128 70.1468 26.3672 69.8369 25.6561L68.1143 26.3518C68.6108 27.5075 69.9256 28.9297 72.1077 28.9297C74.4301 28.9297 76.3898 27.6074 76.3898 24.3902V16.5618H74.5122V17.2678V17.2678ZM72.2467 23.2986C70.8816 23.2986 69.7389 22.1929 69.7389 20.6708C69.7389 19.1345 70.8816 18.0134 72.2467 18.0134C73.592 18.0134 74.6526 19.1345 74.6526 20.6708C74.6526 22.1929 73.592 23.2986 72.2467 23.2986V23.2986ZM98.0715 11.9378H93.3339V24.7503H95.3095V19.8956H98.0715C100.265 19.8956 102.417 18.3594 102.417 15.916C102.417 13.474 100.26 11.9378 98.0715 11.9378V11.9378ZM98.1231 18.1134H95.3095V13.72H98.1231C99.5981 13.72 100.44 14.9051 100.44 15.916C100.44 16.9077 99.5981 18.1134 98.1231 18.1134ZM110.335 16.2722C108.908 16.2722 107.423 16.8821 106.813 18.2338L108.566 18.9449C108.943 18.2338 109.637 18.0032 110.371 18.0032C111.396 18.0032 112.435 18.599 112.451 19.6509V19.7854C112.093 19.5855 111.328 19.2896 110.387 19.2896C108.499 19.2896 106.575 20.2953 106.575 22.1724C106.575 23.8893 108.121 24.995 109.86 24.995C111.189 24.995 111.923 24.4146 112.383 23.7393H112.451V24.7297H114.359V19.8149C114.359 17.5432 112.606 16.2722 110.335 16.2722ZM110.097 23.2935C109.451 23.2935 108.55 22.9834 108.55 22.2083C108.55 21.2166 109.673 20.836 110.645 20.836C111.515 20.836 111.923 21.0218 112.451 21.2665C112.296 22.453 111.241 23.2935 110.097 23.2935V23.2935ZM121.31 16.5528L119.04 22.107H118.972L116.624 16.5528H114.494L118.021 24.3146L116.009 28.6337H118.073L123.508 16.5528H121.31V16.5528ZM103.503 24.7503H105.484V11.9378H103.503V24.7503Z" fill="#353535"/>
</svg>
