<svg width="122" height="122" viewBox="0 0 122 122" fill="none" xmlns="http://www.w3.org/2000/svg">
<circle cx="61" cy="61" r="61" fill="url(#paint0_linear_807_718)"/>
<path d="M84.7173 55.5529C85.478 55.5529 86.2115 55.662 86.9178 55.7711L94.2255 46.0048C85.152 39.1575 73.8508 35.0928 61.626 35.0928C49.4012 35.0928 38.1 39.1575 29.0265 46.0048L61.626 89.6531L71.1342 76.9132V69.193C71.1342 61.6636 77.2195 55.5529 84.7173 55.5529ZM91.5089 73.285V69.193C91.5089 65.4283 88.4663 62.3729 84.7173 62.3729C80.9684 62.3729 77.9258 65.4283 77.9258 69.193V73.285C76.4316 73.285 75.2091 74.5126 75.2091 76.013V86.9251C75.2091 88.4255 76.4316 89.6531 77.9258 89.6531H91.5089C93.0031 89.6531 94.2255 88.4255 94.2255 86.9251V76.013C94.2255 74.5126 93.0031 73.285 91.5089 73.285ZM88.7923 73.285H80.6424V69.193C80.6424 66.9287 82.4625 65.1009 84.7173 65.1009C86.9721 65.1009 88.7923 66.9287 88.7923 69.193V73.285Z" fill="white"/>
<defs>
<linearGradient id="paint0_linear_807_718" x1="17.6205" y1="7.90156" x2="106.75" y2="118.207" gradientUnits="userSpaceOnUse">
<stop stop-color="#2268EF"/>
<stop offset="1" stop-color="#699CFF"/>
</linearGradient>
</defs>
</svg>
